#!OML:ASF E:/inclinewalkrobotboard/Project1/Captureday1/Session1/subject1.ASF
:FULLY-SPECIFIED
:DEGREES
363
root 0 0 0 -7.429556052699127 -4.54863084305147 -3.3593623852197103
lowerback 13.349589898678936 1.3850065978970834 3.2411516476846884
upperback 2.2315125443360007 2.3607402066492504 1.3398731154664134
thorax -5.051880234716133 1.1942572749395979 -0.8616662995832485
lowerneck -17.42339579537433 -3.662178747068542 -1.895916004814955
upperneck 18.873369114980754 -4.6913834713645715 0.7942201921863945
head 8.791491494945506 -2.287196506820672 -0.014666623919094457
rclavicle 3.5258766338995554E-15 6.963112078886564E-16
rhumerus -47.68895575353548 -17.93954152757809 -73.18228759501746
rradius 25.638325863767456
rwrist -2.426387993874364
rhand -22.43091554299188 28.625030605043165
rfingers 7.125020000000063
rthumb 3.996669459955939 -1.6997692367071586
lclavicle -3.7952458597020396E-15 -6.108508352284033E-15
lhumerus -40.956497124388335 2.4136656376761136 84.97332975486333
lradius 26.510464885425908
lwrist 3.0685237468477133
lhand -32.66105837960177 20.995207467920793
lfingers 7.125020000000036
lthumb -5.804394802344984 51.864022847312434
rfemur -21.34870002900756 14.16954998513981 31.323677616390754
rtibia 34.008716224346
rfoot -6.86512932232751 -12.4424235567787
rtoes -5.0947097288591365
lfemur -5.545479842736263 -6.763694953757602 -20.491959859361238
ltibia 17.96427225294517
lfoot -10.36017458310492 0.26823277777707233
ltoes -5.2741871316134326
364
root 0 0 0 -7.232339575950881 -4.133122924314737 -2.9824039358855705
lowerback 13.234536040941023 1.2651080688543788 2.847378164191303
upperback 2.1911046620338404 2.1565469576439966 1.3165572552431877
thorax -5.031492722081381 1.0971939805615802 -0.6316658905992876
lowerneck -17.449356680575853 -3.6221400671912303 -1.9287817054222953
upperneck 18.81157532542209 -4.6159977229136615 0.7541727119680606
head 8.770357442583434 -2.2566950835172963 -0.011172702694361991
rclavicle 3.5294182942195306E-15 8.022679670342531E-16
rhumerus -47.821059946191134 -17.989677090921298 -73.27564403271727
rradius 25.534590876160866
rwrist -2.435626902279644
rhand -22.3717741563066 28.58007478543209
rfingers 7.125020000000063
rthumb 4.052105334597005 -1.7375603493550322
lclavicle -3.681274891332887E-15 -6.193838285666846E-15
lhumerus -40.75016102662636 2.2602710947578775 84.94949866579552
lradius 26.56414874889478
lwrist 3.200130724431027
lhand -32.66004980216415 21.065214412653294
lfingers 7.125020000000036
lthumb -5.8028328948571435 51.934286177298716
rfemur -21.890589777759104 14.837897453037044 32.047217496039366
rtibia 32.53293483477679
rfoot -7.65550714677941 -12.595105083419945
rtoes -5.160765096297808
lfemur -5.119148661481191 -6.741762500670903 -20.685661305202988
ltibia 18.107755532348808
lfoot -10.425000496807918 0.21152136160993962
ltoes -5.405899349645994
365
root 0 0 0 -6.982327454872475 -3.747125808899888 -2.5667265218923774
lowerback 13.102967373158588 1.1304987041338217 2.408374547149114
upperback 2.13652406721744 1.9257085385426098 1.2934894468853353
thorax -5.019805790826265 0.987147449517926 -0.3708161926566609
lowerneck -17.470500604589958 -3.5754224428551504 -1.9611690827129882
upperneck 18.74652137890025 -4.529442142633672 0.7006305051014854
head 8.745248279483437 -2.2218998437317836 -0.009784030674254707
rclavicle 3.525214712073868E-15 8.701043656182314E-16
rhumerus -47.961510876999974 -18.03964042878016 -73.32606616329196
rradius 25.424081872727935
rwrist -2.415846631621811
rhand -22.316851338619557 28.539329416926144
rfingers 7.125020000000062
rthumb 4.103151904026596 -1.7719219282382355
lclavicle -3.5445222993043444E-15 -6.358058427362268E-15
lhumerus -40.48348580378651 2.051775153610377 84.91873515916888
lradius 26.667011662690562
lwrist 3.4376324659391653
lhand -32.64700645623785 21.195844445993853
lfingers 7.1250200000000365
lthumb -5.789915356382558 52.06234611090206
rfemur -22.63477419450156 16.068253285123276 33.144552736626636
rtibia 30.71546629313375
rfoot -8.515362365169228 -12.6102932615186
rtoes -5.2527603403146195
lfemur -4.6929595775941095 -6.716218937524298 -20.86087980914516
ltibia 18.2726587442779
lfoot -10.433242366302725 0.14017310856717202
ltoes -5.585918831058473
366
root 0 0 0 -6.6602788760946865 -3.367969694609412 -2.085751013977963
lowerback 12.948926250667014 0.9725231627102393 1.894613965997894
upperback 2.063783311805576 1.6531795049942095 1.2681924805271925
thorax -5.01813167373337 0.8570754323597937 -0.06300389274262086
lowerneck -17.4849289369841 -3.5189104554066324 -1.995177552375601
upperneck 18.672442534048034 -4.42558924262525 0.6283462259290693
head 8.712973074892252 -2.180576861923439 -0.010722056543017944
rclavicle 3.5167937418814867E-15 9.062536179200866E-16
rhumerus -48.120896476108726 -18.090485051882506 -73.32553294327852
rradius 25.303804236347972
rwrist -2.3594258556594454
rhand -22.266115510159537 28.50227184953016
rfingers 7.125020000000062
rthumb 4.14983121620757 -1.8036127875437842
lclavicle -3.37602828763488E-15 -6.5840467288113964E-15
lhumerus -40.16176129400477 1.7942625566651706 84.87195649839539
lradius 26.812405524768053
lwrist 3.769389788708404
lhand -32.62283627554571 21.38103688441406
lfingers 7.1250200000000365
lthumb -5.766561666932134 52.24245589021338
rfemur -23.486078528111776 17.73109799155553 34.43429763855049
rtibia 29.040573540415068
rfoot -9.141011360548804 -12.508520655731983
rtoes -5.318476132175245
lfemur -4.23573726347535 -6.685150051246657 -21.030858661125137
ltibia 18.47334290614281
lfoot -10.39235825130902 0.044466370646961906
ltoes -5.807281918615315
